<?xml version="1.0" standalone="no"?>
<!DOCTYPE svg PUBLIC "-//W3C//DTD SVG 20010904//EN"
 "http://www.w3.org/TR/2001/REC-SVG-20010904/DTD/svg10.dtd">
<svg version="1.0" xmlns="http://www.w3.org/2000/svg"
 width="512.000000pt" height="512.000000pt" viewBox="0 0 512.000000 512.000000"
 preserveAspectRatio="xMidYMid meet">
<metadata>
Created by potrace 1.14, written by Peter Selinger 2001-2017
</metadata>
<g transform="translate(0.000000,512.000000) scale(0.100000,-0.100000)"
fill="#000000" stroke="none">
<path d="M2305 5109 c-153 -21 -271 -44 -400 -75 -210 -52 -239 -61 -385 -128
l-135 -61 -451 -5 c-426 -5 -453 -6 -473 -24 -36 -32 -27 -67 38 -144 32 -39
73 -91 90 -116 42 -61 101 -185 101 -213 0 -12 -22 -47 -51 -80 -350 -398
-577 -911 -621 -1408 -18 -191 -14 -539 7 -674 51 -328 166 -648 334 -929 40
-67 91 -143 114 -169 24 -26 63 -73 87 -103 203 -251 458 -473 716 -621 353
-204 580 -284 958 -339 166 -25 455 -27 566 -5 41 8 120 22 175 30 196 31 338
73 636 188 383 147 798 491 1071 887 70 102 242 460 293 610 159 465 186 911
84 1373 -37 170 -108 403 -153 504 -81 182 -199 379 -322 537 -30 37 -54 76
-54 85 0 9 36 124 80 256 44 132 80 256 80 276 0 24 -7 42 -21 55 -20 18 -47
19 -478 24 l-456 6 -120 55 c-66 30 -160 70 -210 87 -99 35 -373 92 -560 116
-128 17 -435 20 -540 5z m-671 -511 c8 -13 120 -320 249 -683 691 -1937 920
-2572 933 -2593 18 -27 64 -30 87 -4 9 9 189 551 400 1202 212 652 422 1300
468 1440 l83 255 0 110 c0 94 -4 122 -27 188 -15 42 -27 84 -27 92 0 22 548
22 556 0 3 -8 -89 -299 -204 -647 -116 -348 -425 -1279 -686 -2069 -262 -790
-483 -1442 -491 -1449 -8 -6 -56 -18 -108 -25 -231 -32 -526 -27 -553 10 -22
30 -214 556 -914 2500 -448 1245 -548 1514 -598 1608 -31 57 -34 69 -22 77 9
6 188 10 427 10 l413 0 14 -22z m1011 -1888 c-3 -5 -11 -10 -16 -10 -6 0 -7 5
-4 10 3 6 11 10 16 10 6 0 7 -4 4 -10z"/>
</g>
</svg>
